<svg width="467" height="350" viewBox="0 0 467 350" fill="none" xmlns="http://www.w3.org/2000/svg">
<g id="eye-full">
<path id="eyeouter" d="M260.512 245.747C173.476 245.747 94.7644 207.584 55.0909 146.18C54.7853 145.703 54.6265 145.179 54.6265 144.648C54.6265 144.117 54.7853 143.593 55.0909 143.116C94.7644 81.6992 173.476 43.5366 260.512 43.5366C347.547 43.5366 426.259 81.6869 465.932 143.092C466.238 143.569 466.397 144.093 466.397 144.623C466.397 145.154 466.238 145.678 465.932 146.155C426.259 207.584 347.547 245.747 260.512 245.747Z" fill="#D2AC22" fill-opacity="0.83"/>
<path id="whiteeye" d="M261.318 205.654C208.332 205.654 160.414 184.379 136.261 150.149C136.075 149.883 135.979 149.591 135.979 149.295C135.979 148.999 136.075 148.707 136.261 148.441C160.414 114.203 208.332 92.929 261.318 92.929C314.303 92.929 362.221 114.196 386.374 148.427C386.56 148.693 386.657 148.985 386.657 149.281C386.657 149.577 386.56 149.869 386.374 150.135C362.221 184.379 314.303 205.654 261.318 205.654Z" fill="white" fill-opacity="0.83"/>
<path id="blueeye" d="M299.997 149.388C299.997 174.301 278.64 194.496 252.293 194.496C225.947 194.496 204.589 174.301 204.589 149.388C204.589 124.476 225.947 104.281 252.293 104.281C278.64 104.281 299.997 124.476 299.997 149.388Z" fill="#0CA6B0"/>
<path id="blackeye" d="M271.403 151.317C271.403 161.308 262.691 169.408 251.945 169.408C241.199 169.408 232.488 161.308 232.488 151.317C232.488 141.325 241.199 133.225 251.945 133.225C262.691 133.225 271.403 141.325 271.403 151.317Z" fill="black"/>
</g>
</svg>
